<?xml version="1.0" standalone="no"?>
<!DOCTYPE svg PUBLIC "-//W3C//DTD SVG 20010904//EN"
 "http://www.w3.org/TR/2001/REC-SVG-20010904/DTD/svg10.dtd">
<svg version="1.0" xmlns="http://www.w3.org/2000/svg"
 width="542.000000pt" height="542.000000pt" viewBox="0 0 542.000000 542.000000"
 preserveAspectRatio="xMidYMid meet">
<metadata>
Created by potrace 1.11, written by Peter Selinger 2001-2013
</metadata>
<g transform="translate(0.000000,542.000000) scale(0.100000,-0.100000)"
fill="#000000" stroke="none">
<path d="M2500 5209 c-259 -28 -440 -83 -625 -188 -110 -63 -253 -195 -319
-294 -50 -75 -103 -191 -126 -276 -21 -74 -24 -91 -36 -191 -9 -69 -9 -1237
-1 -1305 17 -138 57 -253 123 -356 82 -129 193 -219 373 -302 l70 -33 -80 -53
c-152 -101 -258 -215 -328 -357 -78 -159 -103 -289 -103 -544 -1 -236 24 -376
92 -525 186 -406 626 -623 1240 -610 193 4 213 6 345 31 394 77 693 313 814
646 17 45 44 138 43 145 -1 2 4 17 9 35 5 18 12 80 14 138 7 170 -30 279 -134
393 -64 69 -123 101 -210 114 -164 25 -313 -28 -408 -145 -80 -98 -94 -142
-107 -327 -10 -133 -122 -292 -245 -349 -71 -31 -236 -30 -311 4 -67 29 -100
51 -163 110 -97 89 -115 162 -112 438 2 173 4 204 23 256 65 179 213 278 427
287 81 3 155 37 211 96 71 76 89 122 89 228 0 78 -4 97 -27 145 -36 72 -90
127 -156 158 -42 19 -75 25 -155 29 -133 6 -219 31 -293 86 -98 72 -155 150
-171 234 -5 21 -8 331 -8 688 l0 650 29 58 c15 32 45 75 67 95 49 48 160 106
224 118 265 48 477 1 603 -136 108 -117 122 -301 35 -475 -14 -27 -60 -97
-103 -155 -115 -156 -123 -171 -136 -260 -24 -161 8 -264 115 -368 93 -91 205
-133 341 -128 87 3 161 29 240 84 114 81 198 183 265 321 46 95 96 272 109
381 3 25 8 71 11 103 13 110 12 316 -1 412 -44 315 -220 569 -508 730 -114 63
-323 130 -476 150 -30 5 -66 10 -80 12 -44 8 -423 10 -490 2z"/>
</g>
</svg>
